<?xml version="1.0" encoding="UTF-8"?><svg xmlns="http://www.w3.org/2000/svg" viewBox="0 0 100 100"><defs><style>.style-1 {fill: #d7446b;} .style-2 {fill: #d64168;} .style-3 {fill: #d64269;} .cls-4 { fill:#d84b70;}</style></defs><path class="style-2" d="m100,50.56c-.03.44-.05.87-.08,1.31l-.17.15s.1.08.15.13c-.12.93-.2,1.87-.36,2.8-.3,1.69-.79,3.34-1.45,4.93-.03.07-.07.13-.11.2-.13.02-.25.04-.08.19-.1.22-.19.43-.29.65-.26.1-.3.17-.18.38-.03.06-.06.12-.09.19-.27.09-.31.16-.19.37-.35.63-.66,1.3-1.07,1.89-.64.94-1.34,1.85-2.01,2.77-.1.02-.22.01-.29.07-.12.1-.07.18.08.2-.11.13-.22.26-.33.39-.1.02-.22,0-.3.06-.13.09-.08.18.07.2-.8.8-1.61,1.61-2.41,2.41-.03-.15-.11-.2-.2-.07-.06.07-.04.2-.06.3-.13.11-.26.22-.38.33-.03-.04-.06-.09-.1-.13-.03.05-.07.09-.08.14-.01.04,0,.09,0,.13-.18.15-.37.29-.55.44q-.36,0-.38.3c-.1.08-.19.15-.29.23-.04-.04-.07-.08-.11-.12-.03.08-.05.16-.08.25-.91.71-1.86,1.34-2.88,1.88-.18-.18-.17-.01-.18.11-.16.09-.31.17-.47.26-.25-.15-.3-.12-.37.2-.55.28-1.11.55-1.66.83-.35-.12-.4-.09-.49.24-.49.21-.99.41-1.48.62-.06-.03-.12-.07-.19-.1-.04.08-.07.15-.11.23-1.3.53-2.63.96-3.99,1.29-.24-.18-.39-.14-.58.14-.72.17-1.43.36-2.16.51-.8.16-1.61.28-2.41.41-.06-.06-.13-.17-.18-.16-.18.03-.41,0-.48.26-.73.19-1.49.22-2.24.28-.03-.05-.05-.09-.08-.14-.04.05-.07.1-.11.15-.57.06-1.13.12-1.7.18-.31.03-.61.06-.92.08-.25.01-.49.02-.74.03-.12,0-.25-.02-.37-.03-.02-.05-.05-.09-.07-.14-.04.05-.07.09-.11.14l-1.4.1c-.06,0-.12,0-.19,0-.06,0-.13,0-.19-.01-.06,0-.12,0-.18,0-.16,0-.31.01-.47.02-.12,0-.25,0-.37,0h-.19c-.62,0-1.24,0-1.86,0-4.81,0-9.62-.01-14.43-.02-.52,0-.54-.03-.46-.57,1.12-.73,2.1-1.59,2.61-2.87.02-.02.04-.04.06-.07.35-.71.6-1.45.58-2.26.02-.04.05-.07.07-.11l.04-1.01c.29.01.25-.2.25-.37,0-.18.04-.39-.25-.37,0-1.38-.02-2.76-.03-4.14,0-1.57,0-3.13,0-4.7-.02-.04-.05-.07-.07-.11.02-.89-.32-1.65-.84-2.34-.23-.3-.52-.55-.78-.82.02-.05.05-.09.07-.14,0,0-.03-.02-.03-.02-.04.04-.07.08-.11.12-.16-.11-.33-.22-.49-.33.03-.03.06-.06.08-.1,0,0-.03-.04-.05-.06-.03.04-.07.08-.1.13-.44-.19-.88-.39-1.32-.58-.02-.07-.05-.13-.07-.2-.03.04-.07.09-.1.13-.44-.12-.87-.23-1.31-.35-.11-.26-.17-.27-.39-.06-.8-.09-1.6-.17-2.4-.26,0-.13-.02-.25-.19-.26-.2,0-.4-.02-.59.01-.06.01-.11.15-.16.23-.47,0-.93,0-1.4,0-.05-.08-.1-.22-.16-.23-.29-.02-.58-.02-.87-.01-.17,0-.18.13-.19.26-.09,0-.19,0-.28,0-.04-.05-.08-.11-.12-.16l-.16.17c-.99.06-1.99.12-2.98.18-.04-.05-.08-.1-.12-.16l-.16.17c-.18.02-.37.04-.55.05,0-.19-.12-.31-.28-.29-.2.02-.45.03-.47.33-.22.02-.43.04-.65.06-.03-.08-.07-.15-.1-.23-.18.09-.47-.04-.55.26-.37.03-.75.05-1.12.08-.03-.04-.05-.09-.08-.13-.04.05-.07.1-.11.14-.47.03-.93.06-1.4.08-.07-.05-.14-.14-.22-.15-.04,0-.1.11-.16.17-.22.02-.43.04-.65.06.01-.23-.15-.34-.32-.31-.21.03-.49.02-.52.35-.28.02-.56.04-.84.06,0-.14-.03-.24-.2-.25-.19,0-.34.04-.36.26-.06,0-.12,0-.19,0-.03-.05-.05-.09-.08-.14-.04.05-.07.1-.11.14-.53.03-1.06.06-1.59.09-.28,0-.56,0-.84,0-.53-.03-1.06-.07-1.59-.1-.05-.22-.23-.27-.41-.25-.06,0-.1.15-.15.23-.19-.02-.37-.04-.56-.06-.19-.38-.39-.39-.67-.04-.68-.1-1.36-.19-2.05-.29-.14-.36-.23-.38-.47-.09-.71-.2-1.42-.4-2.13-.61q-.06-.31-.4-.16c-.11-.04-.23-.09-.34-.13-.1-.4-.13-.41-.53-.21-.04-.02-.08-.03-.13-.05-.06-.13-.09-.3-.18-.39-.13-.12-.18,0-.19.13-.25-.16-.5-.31-.75-.47q-.05-.38-.48-.37s0,0,0,0c.04-.19-.02-.33-.19-.43-.13-.07-.15.03-.17.12-.03-.01-.07-.02-.1-.03-.01-.02-.03-.04-.06-.06-.1-.12-.2-.25-.3-.37.15-.02.21-.1.08-.2-.07-.06-.2-.04-.3-.06-.17-.25-.34-.5-.51-.76.04-.03.08-.07.13-.1-.08-.03-.15-.06-.23-.09-.07-.09-.13-.19-.2-.28,0-.18-.04-.32-.25-.26-.17.05-.05.17-.03.26,0,.06-.02.13-.03.19-.08.05-.19.09-.23.16-.04.07-.01.18-.01.27,0,6.18,0,12.37,0,18.55,0,.08,0,.16,0,.23.01.17.11.25.27.26.08.49.16.98.24,1.47-.18.12-.12.17.05.21.29.8.69,1.55,1.2,2.24-.14.02-.21.1-.08.2.07.06.2.05.3.06.21.21.42.43.64.64.05.43.1.47.57.48,0,0,0,0,0,0q.02.34.36.39c.06.25-.05.34-.29.34-3.5-.01-6.99-.02-10.49-.03-.2,0-.4.03-.6.04-.28,0-.43-.24-.27-.47.09-.13.25-.22.38-.33.02.14.09.21.2.08.06-.07.05-.19.07-.29.06-.05.13-.11.19-.16.02.1.05.19.18.11.17-.1.21-.26.18-.44.02-.02.05-.05.07-.07.25.03.45-.04.54-.29.01-.04-.08-.11-.13-.17.1-.12.19-.25.29-.37.09-.02.19-.02.25-.07.13-.1.08-.18-.06-.21.04-.07.09-.13.13-.2.09-.04.18-.08.27-.12-.04-.05-.08-.1-.12-.14.06-.12.12-.25.19-.37q.26-.04.15-.31c.13-.49.26-.97.39-1.46.08-.06.16-.11.24-.17-.07-.04-.14-.08-.21-.12.01-.54.04-1.09.04-1.63,0-14.71,0-29.43,0-44.14,0-.84-.07-1.68-.38-2.47-.2-.5-.47-.96-.71-1.44.11-.26.08-.31-.23-.36-.05-.06-.11-.12-.16-.18.11-.43-.01-.58-.42-.5,0,0-.02-.02-.02-.02.03-.42-.1-.53-.5-.42-.07-.06-.13-.12-.2-.18.02-.06.08-.14.06-.18-.09-.14-.22-.14-.35-.06,0,0-.03,0-.03,0,.01-.09.05-.18.03-.26-.01-.05-.1-.08-.16-.12-.03.06-.07.12-.1.18-.13-.11-.2-.24-.11-.4.1-.18.26-.12.41-.1.04.22.21.25.38.27.12.01.25,0,.37,0,3.52,0,7.04,0,10.57,0-.05.29-.29.41-.5.55-.02-.09-.05-.2-.16-.13-.11.07-.3.16-.09.33-.1.06-.19.12-.29.18-.39-.01-.63.21-.8.53-.07.14-.02.2.12.21-.48.44-.78,1-1.02,1.59-.02.03-.05.06-.07.08-.04.13-.08.26-.12.38-.02.03-.04.05-.06.08,0,.06-.01.13-.02.19-.03.06-.06.12-.09.18,0,.06-.01.12-.02.19-.02.06-.05.12-.07.19,0,.09-.01.19-.02.28-.03.06-.06.12-.09.18,0,.31-.01.62-.02.93-.16.03-.32.06-.18.28.02.14-.07.34.18.37,0,.22,0,.44,0,.65-.08.03-.22.05-.22.09,0,.14.05.27.22.29,0,.19,0,.37,0,.56-.16.02-.25.11-.26.27,0,.11,0,.22,0,.33-.04.82.04,1.63-.07,2.46-.07.45.07.92.07,1.38,0,3.41,0,6.82,0,10.23,0,.52-.06,1.05-.09,1.57,0,.09,0,.19,0,.28.03.46.05.92.09,1.38.03.33.09.66.14.99,0,.03.08.04.12.06,0,.08,0,.17,0,.25-.17.03-.17.16-.17.3h.18c.02,1.06.2,2.08.59,3.06-.17.23-.15.29.16.38.1.15.2.31.29.46-.03.05-.11.12-.09.14.09.17.19.35.32.5.07.07.22.08.33.11.09.1.18.2.26.29-.02.2.07.29.27.27.25.21.51.43.76.64-.01.16.02.29.18.39.42.25.82.53,1.23.78.15.09.32.11.45-.06.31.13.62.25.93.38.17.44.38.51.65.21.31.09.62.17.94.26.2.34.34.37.56.11.37.06.75.12,1.12.19.11.21.13.22.3.03.09.02.17.03.26.05.07.08.13.17.2.25l.18-.23c1.2.06,2.4.14,3.61.18.91.03,1.82,0,2.73,0,.03.04.05.09.08.13.04-.05.07-.1.11-.14,1.03-.06,2.05-.11,3.08-.17,0,.12,0,.25.18.25.18,0,.27-.09.29-.27.25-.02.5-.04.75-.06.05.08.1.23.15.22.19-.01.42,0,.51-.25.9-.06,1.8-.12,2.7-.18.02.16.1.27.26.26.39-.04.78-.09,1.16-.16.06-.01.11-.13.16-.2.28-.02.56-.04.84-.07,0,.13.02.25.19.24.17,0,.18-.13.18-.25.06,0,.12,0,.19,0,.03.04.05.09.08.13.04-.05.07-.1.11-.14.62-.03,1.24-.06,1.86-.09.06.08.11.16.17.24.07-.08.14-.16.21-.25,1.06-.07,2.11-.1,3.17,0,.04.05.07.1.11.14.03-.05.05-.09.08-.14.34.03.68.06,1.03.09.15.23.22.24.48.05.03-.01.06,0,.08.02.33.42.64.46.95.14.24.05.48.1.73.16.15.35.25.37.47.11.1.03.19.05.29.08.03.02.05.04.08.06.72.14,1.35.48,1.9.95-.12.09-.12.16.04.19.06.01.12,0,.18,0,.1.07.2.14.29.21.01.04.03.08.04.11,0,.1-.02.22.03.31.08.15.19.15.23-.04.06,0,.13,0,.19-.01.16,0,.28-.03.28-.23,0-.11,0-.22,0-.33,0-10.29,0-20.58,0-30.87,0-.11,0-.22,0-.33,0-.19-.11-.24-.27-.23-.11-.8-.23-1.59-.56-2.34-.03-.07-.07-.13-.11-.2-.01-.03-.03-.05-.06-.07-.2-.36-.37-.74-.6-1.08-.15-.23-.38-.4-.56-.6-.42-.45-.85-.88-1.36-1.23-.22-.15-.21-.17-.17-.53.59-.15,1.21-.02,1.82-.1.22,0,.44,0,.65,0,1.49,0,2.98,0,4.48,0,.14,0,.28.02.42.02,2.89,0,5.79,0,8.68,0,.11,0,.22-.01.32-.02.65,0,1.31,0,1.96,0,.06,0,.12,0,.19,0,.76.02,1.53.05,2.29.07.17,0,.34.02.5.03.05.06.12.17.16.16.08-.02.14-.1.21-.16,1.12.06,2.24.12,3.36.18.04.05.07.1.11.15.03-.04.05-.09.08-.13.31.03.62.06.93.08.05.08.1.16.15.24.08-.07.16-.14.23-.21.76.11,1.51.22,2.27.33.08.01.15,0,.23,0,.03.05.06.09.08.14.03-.04.07-.08.1-.12,1.55.21,3.07.55,4.59.94.03,0,.05.03.08.05.09.23.1.23.29.07.24.07.49.14.73.21.03.17.09.24.2.05.34.11.67.22,1.01.32.03.15.07.24.2.06.37.13.74.26,1.11.39.03.21.11.26.28.1.87.37,1.74.74,2.61,1.11.16.41.56.61.93.47.25.13.49.26.74.4.04.28.07.31.28.17.84.54,1.68,1.08,2.51,1.62-.01.23.12.27.31.24.03,0,.05.01.06.04-.02.23.12.27.3.24.15.12.3.24.45.36.02.1.01.23.07.3.1.13.18.06.2-.08.16.14.32.28.48.42.02.1,0,.23.06.31.1.13.18.08.21-.07l1.57,1.57c-.1.02-.19.05-.11.18.1.16.25.21.43.18.14.16.28.32.42.48-.04.03-.08.06-.13.1.04.03.09.07.14.08.04.01.09,0,.13,0,.51.68,1.05,1.34,1.51,2.05,1.31,1.99,2.24,4.16,2.93,6.44.03.09.04.18.06.27-.18.12-.11.17.05.2.2.78.43,1.55.59,2.33.17.86.28,1.74.41,2.61-.05.04-.1.09-.15.13.06.05.11.1.17.15.03.25.05.5.08.75-.04.03-.09.07-.13.1.05.03.09.06.14.09.03.5.05.99.08,1.49-.16.03-.16.15-.17.28-.02.42-.06.84-.08,1.27-.01.18.06.29.25.32Zm-10.53-17.8h0c.03-.22-.03-.38-.29-.37-.18-.22-.36-.44-.53-.66q-.01-.34-.31-.36c-.31-.3-.61-.59-.92-.89-.06.15-.05.26,0,.35.65,1.64.91,3.34.85,5.1-.03.8-.1,1.6-.21,2.4-.09.61-.28,1.2-.42,1.8-.22.14-.26.28-.18.56-.34,1.11-.9,2.11-1.66,2.99-.3-.05-.32.15-.31.36-.25.25-.5.5-.74.75q-.42.02-.46.39h0c-.4.03-.41.04-.48.36-.14.1-.28.19-.42.29-.16-.01-.32-.03-.31.2-.12.07-.24.15-.36.22-.23-.18-.37-.11-.49.25-.06.03-.12.06-.18.09-.33-.17-.41-.14-.57.26-.88.45-1.82.74-2.78.98-.04-.04-.08-.07-.13-.11l-.08.15c-.68.16-1.35.32-2.03.47-.34.07-.7.11-1.04.16-.03-.04-.07-.08-.1-.12-.03.05-.06.1-.08.14-1.08.21-2.17.32-3.26.36-.15-.23-.24-.23-.37.02-.4.03-.8.07-1.2.1-1.03.06-2.06.12-3.09.18-.23-.26-.38-.25-.65.07-.8.11-1.61.23-2.41.34-.27-.19-.34-.18-.48.07-.97.21-1.92.46-2.79.94-.18-.17-.17-.01-.18.11-.36.25-.71.49-1.07.74q-.32,0-.33.3c-.15.15-.29.3-.44.44-.04,0-.09-.02-.13,0-.05.02-.1.05-.14.08.04.03.09.07.13.1-.54.68-.96,1.43-1.28,2.24-.16.03-.24.08-.06.2-.11.58-.22,1.17-.33,1.75-.05.03-.09.06-.14.09.04.03.09.07.13.1,0,.09,0,.19,0,.28-.08.05-.16.09-.24.14.08.05.16.09.24.14,0,.11.02.22.02.32,0,3.38,0,6.75,0,10.13,0,1.33,0,2.66,0,4-.05.04-.1.08-.15.13.06.05.11.1.17.15.13.81.24,1.63.66,2.35.28.48.61.93.92,1.39-.01.08-.07.19-.04.24.17.24.36.47.7.41.47.29.92.63,1.42.87,1.93.93,3.97.84,6.02.59.75-.09,1.49-.27,2.24-.4.19.21.23.2.4-.07l.03-.02h.04s.08.08.12.12c.03-.05.06-.1.08-.15.37-.08.73-.16,1.1-.24.04.04.08.08.12.11.03-.05.06-.1.08-.15.5-.12.99-.24,1.49-.36.03.04.06.09.09.13.03-.06.06-.11.09-.17.77-.24,1.55-.44,2.3-.72,1.14-.43,2.26-.91,3.4-1.38.03.17.14.21.26.11.09-.08.14-.21.21-.32h0c.09,0,.18,0,.27,0,.26,0,.44-.1.47-.38.22-.11.44-.23.66-.34.05.04.1.08.14.13l.12-.27c.38-.23.75-.46,1.13-.69.03.04.07.08.1.12.03-.08.06-.16.09-.24.96-.71,1.93-1.42,2.89-2.14.02.14.1.21.2.08.06-.07.04-.2.06-.3.11-.09.21-.18.32-.27q.4,0,.42-.39c.55-.55,1.11-1.1,1.66-1.65.42-.04.47-.09.47-.52.09-.11.18-.21.28-.32q.3-.02.29-.33c.08-.11.15-.23.24-.34,1.11-1.39,2.08-2.86,2.88-4.45.23-.13.37-.32.33-.6.34-.83.69-1.66,1.03-2.48.15-.02.25-.07.06-.2.07-.21.15-.43.22-.64.16-.03.24-.08.06-.2.03-.13.07-.27.1-.4.73-2.56,1.13-5.17,1.16-7.84,0-.54,0-1.08,0-1.63.24-.15.24-.24-.01-.37-.02-.31-.05-.62-.07-.93.05-.04.1-.08.15-.13-.06-.05-.11-.1-.17-.15-.02-.19-.05-.37-.07-.56.04-.03.08-.07.12-.1-.05-.03-.09-.06-.14-.09-.19-1.1-.37-2.2-.59-3.29-.15-.74-.36-1.47-.55-2.21.15-.13.06-.16-.07-.19l-.24-.73c.18-.13.08-.17-.07-.2-.05-.11-.11-.22-.15-.33-.43-1.16-.93-2.29-1.55-3.36-.47-.8-.98-1.57-1.46-2.36,0-.14,0-.29-.2-.28Zm-10.53-6.99c0-.21-.14-.2-.28-.2l-.92-.58c-.04-.28-.07-.3-.28-.17-.44-.21-.87-.43-1.31-.64-.02-.14-.04-.26-.19-.08-.25-.1-.49-.2-.74-.3-.02-.14-.06-.25-.2-.07-.74-.23-1.48-.46-2.23-.69-.05-.08-.11-.16-.16-.23l-.12.15c-.5-.1-.99-.21-1.49-.31-.03-.13-.08-.2-.19-.05-.56-.07-1.13-.16-1.69-.21-1.14-.1-2.29-.19-3.43-.27-.68-.05-1.36-.06-2.05-.09-.01-.16-.09-.29-.25-.25-.09.02-.14.16-.22.25-.54,0-1.08.02-1.62.01-.98,0-1.97-.01-2.95-.02-.24-.24-.69-.24-.93,0-.49.09-.5.1-.56.67-.05.02-.1.05-.14.07.05.04.1.08.14.11,0,.2.02.4.02.6,0,9.61,0,19.22,0,28.83,0,.14,0,.28,0,.42,0,.1.05.19.1.4.16-.2.26-.33.35-.45.3-.39.6-.79.89-1.18.44-.05.72-.34.76-.77.16-.14.31-.3.49-.43,1.35-1.02,2.89-1.62,4.54-1.93.07.04.13.09.2.13.03-.06.07-.12.1-.18.62-.11,1.24-.23,1.86-.34l.1.13s.06-.09.09-.14c.44-.07.87-.15,1.31-.2.78-.09,1.56-.18,2.35-.25.8-.08,1.6-.13,2.4-.2.03.19.17.2.3.16.07-.02.1-.14.15-.22.59-.1,1.19-.16,1.78-.3.84-.2,1.67-.46,2.5-.69q.27.11.31-.14l2.03-1.16c.23.02.4-.03.38-.31.31-.3.62-.6.92-.9q.38-.04.39-.48c.31-.52.62-1.05.93-1.57.13-.02.26-.04.09-.19.1-.25.2-.49.29-.74.2-.03.25-.12.1-.28.19-.93.38-1.86.57-2.8.05-.03.09-.06.14-.09-.04-.03-.08-.07-.12-.1.02-.31.05-.62.07-.93.27.02.32-.15.26-.35-.1-.35-.11-.68,0-1.03.06-.21-.01-.36-.25-.39-.03-.23-.07-.46-.08-.69-.1-1.24-.38-2.44-.83-3.59-.32-.82-.77-1.58-1.24-2.32,0-.16,0-.3-.22-.28-.05-.07-.1-.13-.15-.2q-.02-.43-.4-.46c-.24-.24-.49-.48-.73-.72q-.03-.39-.47-.4s-.06-.05-.09-.07c0-.27-.16-.32-.38-.29h0Z"/><path class="style-2" d="m48.28,27.15c.16,0,.28.04.27.23,0,.11,0,.22,0,.33,0,10.29,0,20.58,0,30.87,0,.11,0,.22,0,.33,0,.2-.12.23-.28.23,0-.09,0-.19,0-.28,0-.11.02-.22.02-.32,0-2.95,0-5.91,0-8.86,0-.11-.01-.22-.02-.32,0-.11.02-.22.02-.32,0-6.99,0-13.99,0-20.98,0-.17-.02-.34-.02-.51,0-.12.01-.25.02-.37Z"/><path class="style-2" d="m8.46,72.93c-.16-.01-.26-.1-.27-.26,0-.08,0-.16,0-.23,0-6.18,0-12.37,0-18.55,0-.09-.03-.2.01-.27.04-.07.15-.11.23-.16.01.22.03.43.03.65,0,6.23,0,12.47,0,18.7,0,.05,0,.09-.01.14Z"/><path class="style-2" d="m8.45,48.52s-.11-.03-.12-.06c-.06-.33-.11-.66-.14-.99-.04-.46-.06-.92-.09-1.38,0-.09,0-.19,0-.28.03-.52.08-1.05.09-1.57,0-3.41,0-6.82,0-10.23,0-.46-.14-.93-.07-1.38.12-.82.04-1.64.07-2.46,0-.11,0-.22,0-.33,0-.16.1-.25.26-.27,0,.7.01,1.4.01,2.09,0,5.51,0,11.02,0,16.52,0,.11-.01.22-.02.32Z"/><path class="style-2" d="m11.76,21.38c-3.52,0-7.04,0-10.57,0-.12,0-.25,0-.37,0-.17-.02-.34-.05-.38-.27.15,0,.31-.02.46-.02,3.46,0,6.92,0,10.38,0q.4,0,.47.3Z"/><path class="style-2" d="m13.23,56.04c-.13.17-.31.15-.45.06-.42-.25-.82-.53-1.23-.78-.16-.1-.2-.22-.18-.39.62.37,1.25.74,1.87,1.11Z"/><path class="style-2" d="m34.1,56.9c-.05.07-.09.19-.16.2-.39.07-.77.12-1.16.16-.16.02-.25-.1-.26-.26.53-.03,1.06-.07,1.58-.1Z"/><path class="style-3" d="m100,50.56c-.19-.03-.26-.14-.25-.32.03-.42.06-.84.08-1.27,0-.13,0-.25.17-.28v1.86Z"/><path class="style-2" d="m36.81,57.53c0-.13.02-.25.19-.26.29,0,.58-.01.87.01.06,0,.11.15.16.23-.4,0-.81.01-1.21.02Z"/><path class="style-2" d="m10.05,23.05c-.14-.01-.2-.07-.12-.21.17-.32.41-.54.8-.53-.22.25-.45.49-.67.74Z"/><path class="style-2" d="m39.42,57.51c.05-.08.09-.22.16-.23.19-.03.39-.02.59-.01.17,0,.18.13.19.26-.31,0-.62-.01-.93-.02Z"/><path class="style-2" d="m25.8,58.2c.03-.33.32-.32.52-.35.17-.02.33.09.32.31-.28.01-.56.02-.84.03Z"/><path class="style-2" d="m43.82,57.02c-.31.32-.63.28-.95-.14.32.05.64.09.95.14Z"/><path class="style-3" d="m86.13,25.56c-.37.15-.77-.05-.93-.47.31.16.62.31.93.47Z"/><path class="style-2" d="m31.68,57.83c.02-.3.28-.31.47-.33.16-.02.28.11.28.29-.25.01-.5.03-.76.04Z"/><path class="style-3" d="m48.3,71.35c.29-.01.25.19.25.37,0,.18.04.39-.25.37,0-.25,0-.5,0-.75Z"/><path class="style-2" d="m10.06,53.72c-.11-.03-.26-.04-.33-.11-.13-.14-.22-.32-.32-.5-.01-.02.06-.09.09-.14.19.25.37.5.56.75Z"/><path class="style-2" d="m14.8,56.63c-.27.3-.47.23-.65-.21.22.07.43.14.65.21Z"/><path class="style-2" d="m18.24,58.16c.28-.35.48-.33.67.04-.22-.01-.45-.03-.67-.04Z"/><path class="style-2" d="m.89,22.22c.4-.11.54,0,.5.42-.17-.14-.34-.28-.5-.42Z"/><path class="style-2" d="m29.81,57.19c-.08.25-.31.24-.51.25-.04,0-.1-.14-.15-.22.22,0,.44-.02.65-.03Z"/><path class="style-2" d="m1.42,22.66c.4-.08.53.07.42.5-.14-.17-.28-.33-.42-.5Z"/><path class="style-2" d="m24.41,58.28c.02-.22.17-.27.36-.26.17,0,.2.11.2.25-.19,0-.37,0-.56.01Z"/><path class="style-2" d="m30.37,57.92c.08-.3.37-.17.55-.26.03.08.07.15.1.23-.22,0-.44.02-.65.03Z"/><path class="style-2" d="m1.76,76.94c.04.06.14.13.13.17-.09.25-.3.31-.54.29.14-.15.28-.3.42-.45Z"/><path class="style-2" d="m11.37,78.24c-.46,0-.52-.05-.57-.48.19.16.38.32.57.48Z"/><path class="style-2" d="m19.46,58.26c.05-.08.09-.22.15-.23.18-.02.36.02.41.25-.19,0-.37-.01-.56-.02Z"/><path class="style-3" d="m71.03,78.33c.07-.25.29-.23.48-.26.05,0,.12.1.18.16-.22.03-.43.06-.65.1Z"/><path class="style-2" d="m28.42,57.27c-.01.18-.11.27-.29.27-.17,0-.18-.12-.18-.25.16,0,.31-.01.47-.02Z"/><path class="style-2" d="m16.29,57c-.22.26-.36.23-.56-.11.19.04.37.08.56.11Z"/><path class="style-2" d="m12.32,56.67c.4-.21.43-.19.53.21-.18-.07-.35-.14-.53-.21Z"/><path class="style-2" d="m10.24,55.21c.02-.1.05-.19.17-.12.16.09.22.24.19.43-.12-.1-.24-.2-.36-.3Z"/><path class="style-2" d="m11.81,56.35c.02-.12.07-.25.19-.13.1.09.12.26.18.39-.13-.09-.25-.18-.38-.27Z"/><path class="style-2" d="m10.59,55.51q.43,0,.48.37c-.16-.12-.32-.25-.48-.37Z"/><path class="style-3" d="m93.71,31.43c-.18.03-.34-.02-.43-.18-.07-.12.01-.16.11-.18.11.12.21.24.32.36Z"/><path class="style-2" d="m1.27,77.47c.03.19-.01.34-.18.44-.12.07-.16-.01-.18-.11.12-.11.24-.22.36-.33Z"/><path class="style-2" d="m35.32,56.82c0,.12,0,.25-.18.25-.17,0-.19-.11-.19-.24.12,0,.25,0,.37-.01Z"/><path class="style-2" d="m15.72,57.77c.24-.29.33-.27.47.09-.16-.03-.31-.06-.47-.09Z"/><path class="style-2" d="m45.01,57.28c-.21.26-.31.24-.47-.11.16.04.31.07.47.11Z"/><path class="style-2" d="m11.01,22.13c-.21-.17-.02-.26.09-.33.12-.08.15.03.16.13-.08.07-.17.14-.25.21Z"/><path class="style-3" d="m76.25,77.31c.19-.28.34-.32.58-.14-.19.05-.39.09-.58.14Z"/><path class="style-2" d="m.15,21.6c.03-.06.07-.12.1-.18.06.04.15.07.16.12.02.08-.02.17-.03.26-.08-.07-.15-.13-.23-.2Z"/><path class="style-2" d="m11.73,78.62q-.34-.05-.36-.39c.12.13.24.26.36.39Z"/><path class="style-3" d="m82.59,75.14c.09-.33.15-.36.49-.24-.16.08-.33.16-.49.24Z"/><path class="style-2" d="m8.45,29.02c-.17-.02-.23-.14-.22-.29,0-.03.15-.06.22-.09,0,.12,0,.25,0,.37Z"/><path class="style-2" d="m18.35,57.29l-.18.23c-.07-.08-.13-.17-.2-.25.12,0,.25.02.37.03Z"/><path class="style-3" d="m71.41,21.41c-.08.07-.16.14-.23.21-.05-.08-.1-.16-.15-.24l.39.03Z"/><path class="style-2" d="m37.93,56.71c-.07.08-.14.16-.21.25-.06-.08-.11-.16-.17-.24.12,0,.25,0,.37,0Z"/><path class="style-2" d="m8.46,53.26c-.02-.09-.14-.21.03-.26.21-.06.26.09.25.26-.09,0-.19,0-.28,0Z"/><path class="style-2" d="m13.19,57q.34-.14.4.16c-.13-.05-.27-.11-.4-.16Z"/><path class="style-2" d="m42.78,56.86c-.25.19-.32.18-.48-.05.16.02.32.03.48.05Z"/><path class="style-3" d="m93.85,66.77c-.14-.02-.2-.1-.08-.2.07-.06.19-.05.29-.07-.07.09-.15.18-.22.27Z"/><path class="style-3" d="m93.29,67.43c-.15-.03-.2-.11-.07-.2.07-.05.2-.04.3-.06-.08.09-.15.18-.23.27Z"/><path class="style-3" d="m91.07,28.84c-.02.14-.1.21-.2.08-.06-.07-.05-.2-.07-.3.09.07.18.15.27.22Z"/><path class="style-3" d="m90.62,70.07c.02-.1,0-.23.06-.3.1-.13.18-.08.2.07-.09.08-.18.15-.27.23Z"/><path class="style-3" d="m89.12,71.28q.03-.3.38-.3c-.13.1-.26.2-.38.3Z"/><path class="style-3" d="m84.74,74.08c.07-.32.12-.35.37-.2-.12.07-.25.13-.37.2Z"/><path class="style-2" d="m10.17,77.12c-.1-.02-.23,0-.3-.06-.13-.1-.07-.18.08-.2.07.09.15.18.22.27Z"/><path class="style-3" d="m91.81,29.5c-.03.15-.11.2-.21.07-.06-.08-.04-.2-.06-.31.09.08.18.16.26.23Z"/><path class="style-2" d="m.72,77.96c-.02.1-.02.22-.07.29-.11.13-.18.05-.2-.08.09-.07.18-.14.27-.21Z"/><path class="style-2" d="m.41,21.8c.13-.08.26-.08.35.06.02.03-.04.12-.06.18-.1-.08-.19-.16-.29-.24Z"/><path class="style-2" d="m9.21,52.51c-.31-.1-.33-.15-.16-.38.05.13.11.26.16.38Z"/><path class="style-2" d="m9.55,54.48c.1.02.23,0,.3.06.13.1.07.18-.08.2-.08-.09-.15-.18-.23-.27Z"/><path class="style-2" d="m27.3,58.11c.05-.06.12-.17.16-.17.08.02.15.1.22.15-.12,0-.25,0-.37.01Z"/><path class="style-3" d="m66.55,21.1c-.07.06-.14.14-.21.16-.04,0-.1-.11-.16-.16.12,0,.25,0,.37,0Z"/><path class="style-2" d="m3.27,73.39c.07.04.14.08.21.12-.08.06-.16.11-.24.17,0-.1.02-.19.03-.29Z"/><path class="style-3" d="m97.15,61.84c-.12-.21-.08-.29.19-.37-.06.12-.13.25-.19.37Z"/><path class="style-2" d="m8.28,27.62c-.14-.22.02-.25.18-.28,0,.09,0,.19,0,.28h-.18Z"/><path class="style-3" d="m8.28,27.62h.18c0,.12,0,.25,0,.37-.25-.03-.16-.23-.18-.37Z"/><path class="style-2" d="m2,23.34c.31.05.34.1.23.36-.08-.12-.15-.24-.23-.36Z"/><path class="style-2" d="m2.24,76.29c.15.03.19.11.06.21-.06.05-.17.05-.25.07.06-.09.13-.19.19-.28Z"/><path class="style-3" d="m97.43,61.28c-.12-.21-.08-.28.18-.38-.06.13-.12.25-.18.38Z"/><path class="style-2" d="m42.75,57.79c.22-.22.28-.21.39.06-.13-.02-.26-.04-.39-.06Z"/><path class="style-3" d="m80.81,75.88c.04-.08.07-.15.11-.23.06.03.12.07.19.1-.1.04-.2.08-.29.12Z"/><path class="style-2" d="m2.52,75.82s.08.1.12.14c-.09.04-.18.08-.27.12.05-.09.1-.18.15-.27Z"/><path class="style-3" d="m87.16,26.12c-.21.14-.25.12-.28-.17.09.06.19.11.28.17Z"/><path class="style-3" d="m90.35,28.26c-.19.03-.32-.02-.3-.24.1.08.2.16.3.24Z"/><path class="style-2" d="m17.71,57.22c-.17.18-.19.18-.3-.03.1.01.2.02.3.03Z"/><path class="style-3" d="m99.83,46.27c-.06-.05-.11-.1-.17-.15.05-.04.1-.09.15-.13,0,.09.01.19.02.28Z"/><path class="style-2" d="m36.25,57.54l.16-.17c.04.05.08.11.12.16-.09,0-.19,0-.28,0Z"/><path class="style-3" d="m82.59,23.98c-.16.16-.25.1-.28-.1.09.03.18.07.28.1Z"/><path class="style-2" d="m32.98,57.73l.16-.17c.04.05.08.1.12.16-.09,0-.19,0-.28.01Z"/><path class="style-2" d="m10.6,54.29c-.2.02-.29-.08-.27-.27.09.09.18.18.27.27Z"/><path class="style-2" d="m2.85,75.14q.12.28-.15.31c.05-.1.1-.21.15-.31Z"/><path class="style-3" d="m8.46,49.06h-.04s-.04,0-.04,0h-.09c0-.13,0-.26.17-.3,0,.1,0,.2,0,.3Z"/><path class="style-3" d="m79.06,22.84c-.19.16-.2.15-.29-.07.1.02.19.05.29.07Z"/><path class="style-3" d="m99.9,52.14s-.1-.08-.15-.13l.17-.15c0,.09-.01.19-.02.28Z"/><path class="style-3" d="m89.98,27.98c-.19.03-.32,0-.31-.24.1.08.21.16.31.24Z"/><path class="style-2" d="m8.94,53.54c.08.03.15.06.23.09-.04.03-.08.07-.13.1-.04-.06-.07-.12-.11-.19Z"/><path class="style-2" d="m47.5,58.56c-.06,0-.12.02-.18,0-.16-.03-.16-.1-.04-.19.07.06.14.12.22.18Z"/><path class="style-3" d="m88.65,71.63c.03-.08.05-.16.08-.25.04.04.07.08.11.12-.06.04-.12.08-.18.13Z"/><path class="style-3" d="m94.26,32.09s-.09.01-.13,0c-.05-.02-.09-.05-.14-.08.04-.03.08-.06.13-.1.05.06.09.12.14.18Z"/><path class="style-3" d="m90.06,70.54s-.02-.09,0-.13c.02-.05.05-.09.08-.14.03.04.06.09.1.13-.06.05-.12.1-.17.14Z"/><path class="style-3" d="m97.9,60.26c-.17-.15-.05-.17.08-.19l-.08.19Z"/><path class="style-3" d="m68.6,78.62s.07-.1.11-.15c.03.05.05.09.08.14-.06,0-.12,0-.19.01Z"/><path class="style-2" d="m24.87,57.46s-.07.1-.11.14c-.03-.04-.05-.09-.08-.13.06,0,.12,0,.19,0Z"/><path class="style-3" d="m98.81,41.04c-.16-.03-.23-.09-.05-.2.02.07.03.14.05.2Z"/><path class="style-2" d="m46.5,59.2s.07-.08.11-.12c0,0,.03.02.03.02-.02.05-.05.09-.07.14-.03,0-.05-.01-.07-.04Z"/><path class="style-2" d="m29.07,58.01s.07-.1.11-.14c.03.04.05.09.08.13-.06,0-.12,0-.19.01Z"/><path class="style-2" d="m45.94,58.83s.07-.08.1-.13c.02.02.05.05.05.06-.02.04-.05.07-.08.1-.03,0-.05,0-.07-.03Z"/><path class="style-2" d="m44.45,58.19s.07-.09.1-.13c.02.07.05.13.07.2-.06-.02-.11-.04-.17-.06Z"/><path class="style-3" d="m85.58,73.62c.01-.12,0-.28.18-.11-.06.04-.12.07-.18.11Z"/><path class="style-3" d="m99.92,47.2s-.09-.06-.14-.09c.04-.03.09-.07.13-.1,0,.06,0,.12.01.19Z"/><path class="style-2" d="m24.03,58.29s.07-.1.11-.14c.03.05.05.09.08.14h-.19Z"/><path class="style-2" d="m8.74,74.61c-.17-.03-.23-.09-.05-.21.02.07.03.14.05.21Z"/><path class="style-2" d="m35.69,56.81s-.07.1-.11.14c-.03-.04-.05-.09-.08-.13.06,0,.12,0,.19,0Z"/><path class="style-2" d="m41.28,56.72s-.05.09-.08.14c-.04-.05-.07-.1-.11-.14.06,0,.12,0,.19,0Z"/><path class="style-3" d="m81.2,23.48c-.13.18-.17.09-.2-.06.07.02.13.04.2.06Z"/><path class="style-3" d="m79.99,23.1c-.12.19-.17.12-.2-.05.07.02.14.03.2.05Z"/><path class="style-3" d="m70.09,21.29s-.05.09-.08.13c-.04-.05-.07-.1-.11-.15.06,0,.12,0,.19.01Z"/><path class="style-3" d="m74.1,21.77s-.07.08-.1.12c-.03-.05-.06-.09-.08-.14.06,0,.12.01.19.02Z"/><path class="style-3" d="m64.69,78.89s.07-.09.11-.14c.02.05.05.09.07.14-.06,0-.12,0-.19,0Z"/><path class="style-1" d="m47.62,75.47s-.04.04-.06.07c.02-.02.04-.04.06-.07Z"/><path class="style-2" d="m10.08,55.12s.04.03.06.06c-.02-.02-.04-.04-.06-.06Z"/><path class="cls-4" d="m47.56,24.54s.05.04.06.07c-.02-.02-.04-.04-.06-.07Z"/><path class="style-3" d="m48.27,73.1s-.05.07-.07.11c.02-.04.05-.07.07-.11Z"/><path class="style-3" d="m48.2,62.4s.05.07.07.11c-.02-.04-.05-.07-.07-.11Z"/><path class="style-3" d="m83.52,36.57c0-.59,0-1.18,0-1.77.24.03.32.18.25.39-.1.35-.09.68,0,1.03.06.2.01.37-.26.35Z"/><path class="style-3" d="m58.5,51.48c.2-.31.44-.58.76-.77-.04.44-.32.73-.76.77Z"/><path class="style-3" d="m58.71,75.73l.67.65c-.35.06-.53-.17-.7-.41-.03-.05.02-.16.04-.24Z"/><path class="style-3" d="m58.62,22.01c-.31,0-.62,0-.93,0,.25-.24.69-.24.93,0Z"/><path class="style-3" d="m78.85,74.33c.25-.13.5-.25.75-.38-.03.28-.21.39-.47.38-.09,0-.18,0-.27,0Z"/><path class="style-3" d="m67.3,49.15c-.22.02-.44.05-.65.07.28-.32.43-.34.65-.07Z"/><path class="style-3" d="m82.04,46.57c-.19.09-.38.18-.57.26.16-.41.23-.44.57-.26Z"/><path class="style-3" d="m78.39,74.54c.15-.07.31-.14.46-.21-.07.11-.11.24-.21.32-.11.1-.23.05-.26-.11Z"/><path class="style-3" d="m84.73,44.77c-.15.13-.31.26-.46.39q.04-.36.46-.39Z"/><path class="style-3" d="m91.57,62.02c.04-.24.1-.47.33-.6.04.28-.1.46-.33.6Z"/><path class="style-3" d="m87.41,67.98c.16-.17.31-.35.47-.52,0,.43-.05.48-.47.52Z"/><path class="style-3" d="m79.87,26.53c-.16-.13-.31-.27-.47-.4q.44.01.47.4Z"/><path class="style-3" d="m63.66,22.02c-.16,0-.31,0-.47,0,.07-.09.13-.23.22-.25.17-.04.24.1.25.25Z"/><path class="style-3" d="m81,27.71c-.13-.15-.27-.31-.4-.46q.38.03.4.46Z"/><path class="style-3" d="m82.7,46.23c-.16.08-.33.17-.49.25.12-.36.25-.43.49-.25Z"/><path class="style-3" d="m81.07,43.74c.13-.16.26-.32.39-.48q0,.44-.39.48Z"/><path class="style-3" d="m87.63,40.11c-.06.19-.12.37-.18.56-.08-.28-.03-.42.18-.56Z"/><path class="style-3" d="m84.28,45.16c-.16.12-.32.25-.48.37.06-.32.08-.34.48-.37Z"/><path class="style-3" d="m72.7,47.3c.15-.02.3-.04.45-.06-.05.07-.09.19-.15.22-.13.04-.27.03-.3-.16Z"/><path class="style-3" d="m64.23,49.56c-.16.02-.32.04-.48.07.14-.25.22-.26.48-.07Z"/><path class="style-3" d="m85.32,70.02c.14-.13.28-.26.42-.39q-.03.38-.42.39Z"/><path class="style-2" d="m47.83,58.88c.06.04.12.08.17.12.03.05.05.1.08.15-.04.19-.14.19-.23.04-.05-.08-.02-.2-.03-.31Z"/><path class="style-3" d="m84.73,70.52c.09-.07.18-.15.27-.22-.02.1,0,.23-.06.3-.1.13-.18.07-.2-.08Z"/><path class="style-3" d="m88.65,31.72c-.1-.12-.21-.24-.31-.36q.3.02.31.36Z"/><path class="style-3" d="m85.78,43.66c-.1.12-.2.24-.31.36,0-.22,0-.41.31-.36Z"/><path class="style-3" d="m57.1,56.99c0,.09,0,.19,0,.28-.08-.05-.16-.09-.24-.14.08-.05.16-.09.24-.14Z"/><path class="style-3" d="m94.54,48.04c0-.12,0-.25-.01-.37.25.13.25.22.01.37Z"/><path class="style-3" d="m79.31,26.06c-.13-.1-.25-.2-.38-.29.22-.03.38.03.38.29Z"/><path class="style-3" d="m71.96,48.85c-.12,0-.25.01-.37.02.13-.25.22-.25.37-.02Z"/><path class="style-3" d="m89.48,32.76c-.1-.13-.2-.25-.29-.38.27,0,.32.16.29.38Z"/><path class="style-3" d="m79.77,44.95c.13-.1.25-.21.38-.31.02.28-.16.33-.38.31Z"/><path class="style-3" d="m80.26,73.61c.09-.05.18-.1.27-.14-.04.09-.08.18-.12.27-.05-.04-.1-.08-.14-.13Z"/><path class="style-3" d="m69.05,77.44c.13-.02.27-.05.4-.07-.17.27-.21.28-.4.07Z"/><path class="style-3" d="m72.8,23.04c-.09-.03-.19-.05-.28-.08l.12-.15c.05.08.11.16.16.23Z"/><path class="style-3" d="m59.71,51.41c-.11.1-.22.2-.33.3q.01-.3.33-.3Z"/><path class="style-3" d="m77.74,24.99c-.09-.06-.19-.11-.28-.17.21-.14.25-.12.28.17Z"/><path class="style-3" d="m57.11,71.72c0,.09.01.19.02.28-.06-.05-.11-.1-.17-.15.05-.04.1-.08.15-.13Z"/><path class="style-3" d="m82.77,40.76c.03-.09.06-.19.1-.28.16.16.11.24-.1.28Z"/><path class="style-3" d="m88.15,67.14c.1-.11.19-.22.29-.33q0,.31-.29.33Z"/><path class="style-3" d="m77.43,46.25c.1-.05.2-.1.31-.14q-.04.26-.31.14Z"/><path class="style-3" d="m94.45,46.73c0-.09-.01-.19-.02-.28.06.05.11.1.17.15-.05.04-.1.08-.15.13Z"/><path class="style-3" d="m64.29,48.35c.1-.02.2-.03.3-.05-.03.06-.07.12-.1.18-.07-.04-.13-.09-.2-.13Z"/><path class="style-3" d="m58.94,52.15c-.05.06-.1.12-.15.17-.04-.03-.09-.07-.13-.1.05-.03.09-.06.14-.08.04-.01.09,0,.13,0Z"/><path class="style-3" d="m89.67,33.03c-.07-.09-.13-.18-.2-.28.21-.01.2.13.2.28Z"/><path class="style-3" d="m81.37,28.19c-.07-.09-.14-.19-.22-.28.22-.02.23.13.22.28Z"/><path class="style-3" d="m83.38,45.81c-.1.07-.21.13-.31.2,0-.24.16-.21.31-.2Z"/><path class="style-3" d="m81.66,72.77c.06-.04.12-.08.19-.11-.03.08-.06.16-.09.24-.03-.04-.07-.08-.1-.12Z"/><path class="style-3" d="m78.94,25.77c-.09-.07-.19-.13-.28-.2.14,0,.29-.01.28.2Z"/><path class="style-3" d="m92.91,39.29l-.07-.2c.15.02.24.06.07.2Z"/><path class="style-3" d="m93.21,40.21c-.02-.06-.05-.13-.07-.19.13.02.22.06.07.19Z"/><path class="style-3" d="m82.39,41.69c.03-.06.06-.13.09-.19.17.15.04.17-.09.19Z"/><path class="style-3" d="m92.93,58.94c.02-.07.04-.13.06-.2.18.13.09.17-.06.2Z"/><path class="style-3" d="m94.37,45.89c0-.06,0-.12-.01-.19.05.03.09.06.14.09-.04.03-.08.07-.12.1Z"/><path class="style-3" d="m93.21,58.11c.02-.07.04-.14.06-.2.19.12.1.17-.06.2Z"/><path class="style-3" d="m57.51,54.57c-.02.07-.04.13-.06.2-.19-.12-.11-.17.06-.2Z"/><path class="style-3" d="m76.15,24.18c-.06-.03-.13-.05-.19-.08.15-.18.17-.06.19.08Z"/><path class="style-3" d="m78.69,47.81c-.07.01-.14.03-.21.04.03-.05.05-.1.08-.15.04.04.08.07.13.11Z"/><path class="style-3" d="m83.44,37.69c0-.06,0-.12.01-.19.04.03.08.07.12.1-.05.03-.09.06-.14.09Z"/><path class="style-3" d="m75.22,23.8c-.07-.02-.13-.05-.2-.07.14-.18.17-.07.2.07Z"/><path class="style-3" d="m66.46,47.97c.06,0,.12,0,.19-.01-.03.05-.06.09-.09.14l-.1-.13Z"/><path class="style-3" d="m57.12,56.52c0,.06,0,.12-.01.19-.04-.03-.09-.07-.13-.1.05-.03.09-.06.14-.09Z"/><path class="style-3" d="m72.52,76.68c.06-.01.12-.02.18-.04-.03.06-.06.11-.09.17-.03-.04-.06-.09-.09-.13Z"/><path class="style-3" d="m75.41,48.48c-.06,0-.12.01-.19.02.03-.05.06-.1.08-.14.03.04.07.08.1.12Z"/><path class="style-3" d="m70.82,77.07c.07-.01.14-.02.21-.03-.03.05-.06.1-.08.15-.04-.04-.08-.08-.12-.11Z"/><path class="style-3" d="m69.51,77.35c.07-.01.14-.02.21-.03-.03.05-.06.1-.08.15-.04-.04-.08-.08-.12-.12Z"/><path class="style-3" d="m60.96,50.57c-.06.04-.12.07-.18.11.01-.12,0-.28.18-.11Z"/><path class="style-3" d="m57.13,22.68c0,.06,0,.12,0,.19-.05-.04-.1-.08-.14-.11.05-.02.1-.05.14-.07Z"/><path class="style-3" d="m71.03,22.65c-.06-.02-.13-.03-.19-.05.11-.15.16-.08.19.05Z"/></svg>